<svg aria-hidden="true" style="position: absolute; width: 0; height: 0; overflow: hidden;" version="1.1" xmlns="http://www.w3.org/2000/svg" xmlns:xlink="http://www.w3.org/1999/xlink">
<defs>
<symbol id="icon-temperature" viewBox="0 0 32 32">
<path fill="#fac663" style="fill: var(--color1, #fac663)" d="M16 0c8.837 0 16 7.163 16 16s-7.163 16-16 16c-8.837 0-16-7.163-16-16s7.163-16 16-16z"></path>
<path fill="#fffdfb" style="fill: var(--color2, #fffdfb)" d="M21.162 10.774c0.159 0 0.288 0.129 0.288 0.288s-0.129 0.288-0.288 0.288h-2.577c-0.159 0-0.288-0.129-0.288-0.288s0.129-0.288 0.288-0.288h2.577zM20.128 12.363c0-0.159-0.129-0.288-0.288-0.288h-1.255c-0.159 0-0.288 0.129-0.288 0.288s0.129 0.288 0.288 0.288h1.255c0.159 0 0.288-0.129 0.288-0.288zM18.297 13.663c0 0.159 0.129 0.288 0.288 0.288h2.577c0.159 0 0.288-0.129 0.288-0.288s-0.129-0.288-0.288-0.288h-2.577c-0.159 0-0.288 0.129-0.288 0.288zM20.128 14.964c0-0.159-0.129-0.288-0.288-0.288h-1.255c-0.159 0-0.288 0.129-0.288 0.288s0.129 0.288 0.288 0.288h1.255c0.159 0 0.288-0.129 0.288-0.288zM18.297 16.265c0 0.159 0.129 0.288 0.288 0.288h2.577c0.159 0 0.288-0.129 0.288-0.288s-0.129-0.288-0.288-0.288h-2.577c-0.159 0-0.288 0.129-0.288 0.288zM18.789 21.498c0 2.301-1.848 4.173-4.12 4.173s-4.12-1.872-4.12-4.173c0-1.491 0.773-2.846 2.034-3.596v-9.46c0-1.165 0.935-2.112 2.085-2.112s2.085 0.947 2.085 2.112v9.46c1.261 0.749 2.034 2.104 2.034 3.596zM18.217 21.498c0-1.265-0.694-2.657-1.812-3.232l-0.223-0.115v-9.709c0-0.71-0.813-1.536-1.514-1.536s-1.514 0.825-1.514 1.536v9.709l-0.223 0.115c-1.118 0.575-1.812 1.967-1.812 3.232 0 1.846 1.725 3.596 3.548 3.596s3.548-1.75 3.548-3.596zM17.297 21.498c0 1.468-1.179 2.662-2.628 2.662s-2.628-1.194-2.628-2.662c0-1.203 1.045-2.259 2.194-2.569l0.151-0.041v-4.8c0-0.156 0.127-0.283 0.283-0.283s0.283 0.127 0.283 0.283v4.8l0.151 0.041c1.149 0.31 2.194 1.366 2.194 2.569zM15.031 19.719c-0.063-0.282-0.332-0.215-0.617-0.149-0.996 0.228-1.692 1.111-1.692 2.146 0 0.293 0 0.607 0.371 0.607 0.197 0 0.242-0.327 0.242-0.62 0-0.526 0.322-1.312 1.078-1.488 0.282-0.066 0.681-0.211 0.617-0.496z"></path>
</symbol>
<symbol id="icon-video" viewBox="0 0 32 32">
<path fill="#fac663" style="fill: var(--color1, #fac663)" d="M16 0c8.837 0 16 7.163 16 16s-7.163 16-16 16c-8.837 0-16-7.163-16-16s7.163-16 16-16z"></path>
<path fill="#fffdfb" style="fill: var(--color2, #fffdfb)" d="M25.67 14.637c-0.007-0.143-0.091-0.408-0.58-0.577l-13.051-4.492c-0.669-0.23-1.411 0.097-1.655 0.73l-1.148 2.986c-0.244 0.633 0.103 1.336 0.772 1.567l3.804 1.309c-0.072 0.416 0.048 0.827 0.311 1.142l-0.81 2.107c-0.037 0.097-0.136 0.162-0.245 0.162h-2.374v-0.733c0-0.404-0.348-0.733-0.775-0.733h-0.516c-0.143 0-0.258 0.109-0.258 0.244v3.911c0 0.135 0.116 0.244 0.258 0.244h0.516c0.427 0 0.775-0.329 0.775-0.733v-0.733h2.374c0.758 0 1.442-0.453 1.701-1.127l0.793-2.063c0.454-0.060 0.867-0.311 1.111-0.703l4.445 1.53c0.145 0.050 0.294 0.074 0.44 0.074 0.444-0 0.866-0.218 1.102-0.583l0.51 0.176c0.058 0.020 0.117 0.030 0.177 0.030 0.074 0 0.148-0.015 0.218-0.046 0.125-0.055 0.22-0.153 0.267-0.276l0.707-1.838c0.086-0.224-0.012-0.469-0.22-0.586l0.828-0.365c0.472-0.208 0.532-0.479 0.525-0.622zM10.176 21.772c0 0.135-0.116 0.244-0.258 0.244h-0.258v-3.422h0.258c0.142 0 0.258 0.11 0.258 0.244v2.933zM14.282 19.744c-0.185 0.482-0.674 0.806-1.215 0.806h-2.374v-0.489h2.374c0.325 0 0.619-0.194 0.73-0.484l0.741-1.928c0.085 0.048 0.176 0.090 0.273 0.123 0.069 0.024 0.138 0.042 0.207 0.057l-0.736 1.915zM15.376 17.373c-0.006-0-0.012-0-0.018 0-0.123 0.002-0.248-0.018-0.371-0.060-0.144-0.049-0.269-0.126-0.371-0.22-0.009-0.011-0.020-0.021-0.031-0.030-0.192-0.194-0.295-0.457-0.276-0.73l1.864 0.642c-0.189 0.245-0.484 0.39-0.797 0.399zM24.052 16.044l-0.706 1.838-0.486-0.167 0.67-1.743 0.137-0.061 0.385 0.132zM24.927 14.816l-2.1 0.927c-0.455 0.201-1.238 0.233-1.709 0.071l-9.897-3.405c-0.134-0.046 0.203 0.186 0.154 0.313s-0.465 0.1-0.331 0.146l9.897 3.405c0.26 0.090 0.58 0.133 0.907 0.133 0.357 0 0.722-0.052 1.024-0.154l-0.586 1.525c-0.146 0.38-0.592 0.577-0.993 0.438l-11.11-3.823c-0.401-0.138-0.609-0.56-0.463-0.94l0.442-1.149c0.147 0.214 0.367 0.387 0.639 0.481l0.243 0.084c0.134 0.046 0.282-0.019 0.331-0.146s-0.020-0.267-0.154-0.313l-0.243-0.084c-0.401-0.138-0.609-0.56-0.463-0.94l0.353-0.919c0.146-0.38 0.592-0.577 0.993-0.438l13.051 4.492c0.166 0.057 0.227 0.117 0.24 0.139-0.010 0.023-0.066 0.087-0.226 0.158z"></path>
<path fill="#fffdfb" style="fill: var(--color2, #fffdfb)" d="M23.546 15.426l1.381-0.609c0.16-0.071 0.216-0.135 0.226-0.158-0.012-0.022-0.074-0.081-0.24-0.139l-13.051-4.492c-0.402-0.138-0.847 0.058-0.993 0.438l-0.353 0.919c-0.146 0.38 0.062 0.802 0.463 0.94l10.139 3.489c0.472 0.163 1.255 0.13 1.709-0.071l0.719-0.317z"></path>
</symbol>
<symbol id="icon-taxi" viewBox="0 0 32 32">
<path fill="#fac663" style="fill: var(--color1, #fac663)" d="M16 0c8.837 0 16 7.163 16 16s-7.163 16-16 16c-8.837 0-16-7.163-16-16s7.163-16 16-16z"></path>
<path fill="#fffdfb" style="fill: var(--color2, #fffdfb)" d="M24.908 16.722c-0.078-0.079-1.567-1.939-4.817-1.998-0.313-0.554-1.508-2.354-3.446-2.354h-0.059l-0.862-1.662c-0.059-0.099-0.157-0.158-0.255-0.158h-1.332c-0.117 0-0.215 0.059-0.255 0.158l-0.783 1.642h-0.255c-0.078 0-1.919-0.138-3.838 2.354h-1.488c-0.137 0-0.255 0.099-0.294 0.237-0.020 0.119-0.607 2.968 0.372 4.194 0.313 0.376 0.725 0.574 1.234 0.574h0.411c0.137 0.989 0.979 1.741 1.997 1.741s1.86-0.752 1.997-1.741h5.718c0.137 0.989 0.979 1.741 1.997 1.741s1.86-0.752 1.997-1.741h1.723c0.157 0 0.294-0.138 0.294-0.297v-2.513c0-0.059-0.020-0.138-0.059-0.178zM16.645 12.943c1.371 0 2.311 1.148 2.742 1.781h-4.249v-1.781h1.508zM14.334 11.143h0.96l0.627 1.227h-2.174l0.587-1.227zM12.826 12.943h1.743v1.781h-4.798c1.586-1.84 3.016-1.781 3.055-1.781zM11.24 20.877c-0.783 0-1.43-0.653-1.43-1.444s0.646-1.444 1.43-1.444 1.429 0.653 1.429 1.444c0.020 0.791-0.627 1.444-1.43 1.444zM20.953 20.877c-0.783 0-1.43-0.653-1.43-1.444s0.646-1.444 1.43-1.444c0.783 0 1.43 0.653 1.43 1.444s-0.627 1.444-1.43 1.444zM24.38 19.136h-1.43c-0.137-0.989-0.979-1.741-1.997-1.741s-1.86 0.752-1.997 1.741h-5.718c-0.137-0.989-0.979-1.741-1.997-1.741s-1.86 0.752-1.997 1.741h-0.411c-0.333 0-0.587-0.119-0.783-0.356-0.607-0.772-0.45-2.572-0.294-3.462h12.161c2.722 0 4.151 1.365 4.465 1.701v2.117z"></path>
<path fill="#fffdfb" style="fill: var(--color2, #fffdfb)" d="M14.334 11.143h0.96l0.627 1.227h-2.174l0.587-1.227z"></path>
<path fill="#fffdfb" style="fill: var(--color2, #fffdfb)" d="M11.24 20.877c-0.783 0-1.43-0.653-1.43-1.444s0.646-1.444 1.43-1.444 1.429 0.653 1.429 1.444c0.020 0.791-0.627 1.444-1.43 1.444z"></path>
<path fill="#fffdfb" style="fill: var(--color2, #fffdfb)" d="M20.953 20.877c-0.783 0-1.43-0.653-1.43-1.444s0.646-1.444 1.43-1.444c0.783 0 1.43 0.653 1.43 1.444s-0.627 1.444-1.43 1.444z"></path>
</symbol>
<symbol id="icon-veterinarian" viewBox="0 0 32 32">
<path fill="#fac663" style="fill: var(--color1, #fac663)" d="M16 0c8.837 0 16 7.163 16 16s-7.163 16-16 16c-8.837 0-16-7.163-16-16s7.163-16 16-16z"></path>
<path fill="#fffdfb" style="fill: var(--color2, #fffdfb)" d="M14.092 13.283c-0.088 0.209-0.133 0.429-0.131 0.655 0.002 0.454 0.192 0.886 0.534 1.214s0.798 0.517 1.284 0.531c0.379 0.011 0.753-0.087 1.070-0.277 0.301 0.181 0.654 0.278 1.014 0.278 0.019 0 0.038-0 0.057-0.001 0.481-0.014 0.934-0.199 1.275-0.522s0.534-0.748 0.543-1.198c0.006-0.281-0.058-0.551-0.189-0.802-0.12-0.23-1.090-1.225-1.433-1.589-0.086-0.091 0.145 0.228 0.047 0.308s-0.416-0.047-0.33 0.044c0.311 0.33 1.193 1.239 1.292 1.43 0.098 0.188 0.145 0.39 0.141 0.601-0.014 0.701-0.612 1.266-1.361 1.287-0.329 0.010-0.652-0.090-0.91-0.28-0.085-0.063-0.206-0.063-0.291 0-0.258 0.19-0.582 0.289-0.91 0.28-0.747-0.021-1.357-0.607-1.361-1.306-0.001-0.17 0.032-0.335 0.098-0.491 0.153-0.36 0.483-0.768 1.105-1.363 0.584-0.559 1.528-0.627 2.197-0.159 0.104 0.073 0.252 0.053 0.33-0.044s0.057-0.235-0.047-0.308c-0.857-0.6-2.067-0.513-2.816 0.203-0.677 0.648-1.027 1.085-1.206 1.508z"></path>
<path fill="#fffdfb" style="fill: var(--color2, #fffdfb)" d="M15.605 11.068c0.606 0 1.098-0.59 1.098-1.314s-0.493-1.314-1.098-1.314c-0.606 0-1.098 0.59-1.098 1.314s0.493 1.314 1.098 1.314zM15.605 8.88c0.34 0 0.627 0.4 0.627 0.874s-0.287 0.874-0.627 0.874c-0.34 0-0.627-0.4-0.627-0.874s0.287-0.874 0.627-0.874z"></path>
<path fill="#fffdfb" style="fill: var(--color2, #fffdfb)" d="M15.605 8.88c0.34 0 0.627 0.4 0.627 0.874s-0.287 0.874-0.627 0.874c-0.34 0-0.627-0.4-0.627-0.874s0.287-0.874 0.627-0.874z"></path>
<path fill="#fffdfb" style="fill: var(--color2, #fffdfb)" d="M13.355 12.644c0.489 0 0.871-0.451 0.871-1.027s-0.383-1.027-0.871-1.027c-0.489 0-0.871 0.451-0.871 1.027s0.383 1.027 0.871 1.027zM13.355 11.031c0.217 0 0.4 0.268 0.4 0.586s-0.183 0.586-0.4 0.586c-0.217 0-0.4-0.268-0.4-0.586s0.183-0.586 0.4-0.586z"></path>
<path fill="#fffdfb" style="fill: var(--color2, #fffdfb)" d="M13.355 11.031c0.217 0 0.4 0.268 0.4 0.586s-0.183 0.586-0.4 0.586c-0.217 0-0.4-0.268-0.4-0.586s0.183-0.586 0.4-0.586z"></path>
<path fill="#fffdfb" style="fill: var(--color2, #fffdfb)" d="M20.253 12.644c0.489 0 0.872-0.451 0.872-1.027s-0.383-1.027-0.872-1.027c-0.489 0-0.871 0.451-0.871 1.027s0.383 1.027 0.871 1.027zM20.253 11.031c0.217 0 0.4 0.268 0.4 0.586s-0.183 0.586-0.4 0.586c-0.217 0-0.4-0.268-0.4-0.586s0.183-0.586 0.4-0.586z"></path>
<path fill="#fffdfb" style="fill: var(--color2, #fffdfb)" d="M20.253 11.031c0.217 0 0.4 0.268 0.4 0.586s-0.183 0.586-0.4 0.586c-0.217 0-0.4-0.268-0.4-0.586s0.183-0.586 0.4-0.586z"></path>
<path fill="#fffdfb" style="fill: var(--color2, #fffdfb)" d="M18.363 11.068c0.606 0 1.098-0.59 1.098-1.314s-0.493-1.314-1.098-1.314c-0.606 0-1.098 0.59-1.098 1.314s0.493 1.314 1.098 1.314zM18.363 8.88c0.34 0 0.627 0.4 0.627 0.874s-0.287 0.874-0.627 0.874c-0.34 0-0.627-0.4-0.627-0.874s0.287-0.874 0.627-0.874z"></path>
<path fill="#fffdfb" style="fill: var(--color2, #fffdfb)" d="M18.363 8.88c0.34 0 0.627 0.4 0.627 0.874s-0.287 0.874-0.627 0.874c-0.34 0-0.627-0.4-0.627-0.874s0.287-0.874 0.627-0.874z"></path>
<path fill="#fffdfb" style="fill: var(--color2, #fffdfb)" d="M22.839 15.451c-0.239-0.223-0.556-0.346-0.894-0.346s-0.655 0.123-0.894 0.346l-1.387 1.297c-0.232-0.238-0.566-0.388-0.936-0.388h-1.986c-0.13 0 0.249 0.099 0.249 0.22s-0.379 0.22-0.249 0.22h1.986c0.438 0 0.794 0.333 0.794 0.742s-0.356 0.742-0.794 0.742h-1.986c-0.13 0-0.236 0.099-0.236 0.22s0.105 0.22 0.236 0.22h1.986c0.697 0 1.265-0.53 1.265-1.183 0-0.143-0.027-0.28-0.077-0.407 0.003-0.002 0.006-0.004 0.008-0.007l1.46-1.366c0.309-0.289 0.813-0.289 1.122 0s0.309 0.76 0 1.049l-2.928 2.738h-2.7c-0.13 0 0.112 0.099 0.112 0.22s-0.13 0.22 0 0.22h2.686c0.062 0 0.122-0.023 0.167-0.065l2.997-2.802c0.493-0.461 0.493-1.211 0-1.672z"></path>
<path fill="#fffdfb" style="fill: var(--color2, #fffdfb)" d="M17.050 19.549h-1.073c-0.062 0-0.121 0.023-0.166 0.064l-0.741 0.684-1.81-1.693c-0.035-0.121-0.052-0.245-0.052-0.372 0-0.788 0.686-1.43 1.529-1.43 0.014 0 0.028-0.001 0.041-0.004h2.071c0.13 0 0.236-0.099 0.236-0.22s-0.105-0.22-0.236-0.22h-2.298c-0.038 0-0.074 0.009-0.106 0.024-0.945 0.13-1.676 0.879-1.706 1.791l-0.19-0.178c-0.092-0.086-0.241-0.086-0.333 0l-1.248 1.167c-0.008 0.008-0.015 0.015-0.022 0.024l-2.090 2.186c-0.039 0.040-0.060 0.092-0.060 0.146l-0.004 1.81c-0 0.122 0.105 0.22 0.235 0.221l3.884 0.010c0.063 0 0.122-0.023 0.167-0.065l2.511-2.347c0.044-0.041 0.069-0.097 0.069-0.156s-0.025-0.114-0.069-0.156l-0.214-0.2 0.701-0.647h0.976c0.13 0 0.236-0.099 0.236-0.22s-0.106-0.22-0.236-0.22zM12.812 23.12l-3.55-0.009 0.003-1.506 1.878-1.964 2.695 2.52-1.026 0.959zM14.186 21.835l-2.706-2.53 0.901-0.842 2.706 2.53-0.901 0.842z"></path>
</symbol>
<symbol id="icon-meal" viewBox="0 0 32 32">
<path fill="#fac663" style="fill: var(--color1, #fac663)" d="M16 0c8.837 0 16 7.163 16 16s-7.163 16-16 16c-8.837 0-16-7.163-16-16s7.163-16 16-16z"></path>
<path fill="#fffdfb" style="fill: var(--color2, #fffdfb)" d="M16.583 16.393c1.152 0 2.094 1.211 2.094 1.513s-0.942 1.311-2.094 1.311-1.989-1.311-1.989-1.311c0 0 0.838-1.513 1.989-1.513z"></path>
<path fill="none" stroke="#fffdfb" style="stroke: var(--color2, #fffdfb)" stroke-linejoin="round" stroke-linecap="round" stroke-miterlimit="4" stroke-width="0.7033" d="M13.338 16.695l1.256 1.211M14.594 17.906l-1.256 1.211M14.594 17.906c0 0 0.838 1.311 1.989 1.311s2.094-1.009 2.094-1.311c0-0.303-0.942-1.513-2.094-1.513s-1.989 1.513-1.989 1.513z"></path>
<path fill="#fffdfb" style="fill: var(--color2, #fffdfb); stroke: var(--color2, #fffdfb)" stroke="#fffdfb" stroke-linejoin="miter" stroke-linecap="butt" stroke-miterlimit="4" stroke-width="0.3516" d="M23.969 13.7v0c-0.025-0.168-0.177-0.301-0.367-0.301h-1.573l-0.032-0.136c-0.229-0.988-1.132-1.285-1.236-1.318l-0.069-0.022-0.033-0.064c-0.489-0.943-1.498-0.99-1.611-0.994l-0.071-0.002-0.049-0.051c-0.597-0.62-1.406-0.627-1.839-0.519l-0.068 0.017-0.061-0.035c-0.384-0.22-1.163-0.433-1.919 0l-0.061 0.035-0.068-0.017c-0.434-0.107-1.242-0.101-1.839 0.519l-0.049 0.051-0.071 0.002c-0.112 0.004-1.123 0.051-1.611 0.994l-0.033 0.065-0.069 0.022c-0.106 0.034-1.008 0.332-1.236 1.318l-0.031 0.136h-1.573c-0.19 0-0.342 0.133-0.367 0.301v0l-1.17 7.88c-0.015 0.098 0.015 0.198 0.085 0.275M23.969 13.7l-17.024 8.155M23.969 13.7l1.17 7.879c0.015 0.098-0.016 0.198-0.085 0.275M23.969 13.7l1.085 8.154M6.945 21.855c0.069 0.077 0.172 0.123 0.282 0.123h17.545c0.11 0 0.212-0.046 0.282-0.123M6.945 21.855l18.109-0M12.075 12.005l-0 0c-0.076 0.274-0.313 0.472-0.595 0.511-0.002 0.001-0.005 0.003-0.009 0.005-0.018 0.011-0.044 0.029-0.077 0.053-0.065 0.049-0.148 0.12-0.234 0.203-0.089 0.085-0.178 0.178-0.255 0.27h10.217c-0.072-0.108-0.149-0.213-0.221-0.304-0.064-0.082-0.122-0.15-0.166-0.197-0.014-0.015-0.026-0.027-0.035-0.036-0.269-0.048-0.492-0.242-0.565-0.507h-8.060zM12.075 12.005c0.034-0.122 0.179-0.262 0.404-0.368 0.22-0.103 0.457-0.145 0.603-0.121 0.288 0.047 0.581-0.080 0.736-0.326 0.075-0.119 0.224-0.221 0.406-0.273s0.367-0.045 0.502 0.019c0.264 0.125 0.581 0.082 0.8-0.111 0.108-0.095 0.283-0.153 0.474-0.153s0.366 0.057 0.475 0.153c0.219 0.193 0.536 0.236 0.8 0.111h0M12.075 12.005l5.2-1.070M17.274 10.936c0.129-0.061 0.367-0.072 0.613-0.017 0.119 0.027 0.23 0.067 0.321 0.117 0.092 0.050 0.152 0.105 0.184 0.155M17.274 10.936l1.853 0.581M19.128 11.516l-0 0c-0.288 0.047-0.581-0.079-0.736-0.326M19.128 11.516c0.149-0.024 0.386 0.019 0.605 0.123M19.128 11.516l0.605 0.123M18.392 11.19h0c-0 0-0 0-0 0zM19.733 11.639c0.225 0.107 0.369 0.247 0.402 0.366l-0.402-0.366zM11.422 12.169h-0c-0.055 0.006-0.104 0.034-0.13 0.050-0.034 0.020-0.072 0.046-0.11 0.076-0.078 0.059-0.171 0.139-0.264 0.228-0.185 0.176-0.393 0.408-0.507 0.616l-0.142 0.26h11.462l-0.142-0.26c-0.116-0.212-0.276-0.439-0.412-0.613-0.068-0.087-0.133-0.163-0.185-0.219-0.026-0.028-0.051-0.053-0.074-0.073-0.011-0.010-0.025-0.021-0.040-0.031l-0.001-0c-0.009-0.006-0.043-0.029-0.090-0.034h-0c-0.154-0.017-0.276-0.123-0.314-0.258v-0c-0.075-0.27-0.338-0.47-0.59-0.589-0.258-0.122-0.569-0.192-0.813-0.152-0.154 0.025-0.305-0.044-0.382-0.166v-0c-0.074-0.118-0.189-0.209-0.312-0.276-0.125-0.068-0.268-0.119-0.413-0.152-0.282-0.063-0.609-0.067-0.84 0.042-0.139 0.066-0.305 0.042-0.418-0.057v-0c-0.19-0.167-0.457-0.241-0.707-0.241s-0.517 0.074-0.706 0.241v0c-0.112 0.099-0.279 0.123-0.418 0.057v0c-0.23-0.109-0.507-0.107-0.748-0.039s-0.474 0.212-0.608 0.424l-0 0c-0.077 0.123-0.227 0.191-0.381 0.166h-0c-0.24-0.039-0.55 0.029-0.809 0.15-0.253 0.119-0.518 0.318-0.594 0.592-0.038 0.136-0.16 0.241-0.314 0.258zM11.488 12.513c0 0-0 0-0.001 0l0.001-0zM7.055 21.682l-0.031 0.202h17.952l-0.031-0.202-1.246-8.188h-15.399l-0.023 0.149-1.223 8.039z"></path>
</symbol>
<symbol id="icon-walking" viewBox="0 0 32 32">
<path fill="#fac663" style="fill: var(--color1, #fac663)" d="M16 0c8.837 0 16 7.163 16 16s-7.163 16-16 16c-8.837 0-16-7.163-16-16s7.163-16 16-16z"></path>
<path fill="#fffdfb" style="fill: var(--color2, #fffdfb)" d="M24.115 10.828c-0.117-0.093-0.28-0.115-0.426-0.071-0.545 0.164-0.954 0.49-1.151 0.672-0.364-0.104-0.757-0.104-1.121 0-0.199-0.184-0.617-0.516-1.171-0.678-0.165-0.048-0.344-0-0.457 0.125-0.096 0.106-0.12 0.253-0.073 0.385 0.138 0.393 0.362 1.011 0.441 1.227-0.035 0.108-0.056 0.221-0.063 0.337-0.007 0.112-0.005 0.219 0.005 0.321l-0.155 0.304c-0.101 0.2-0.304 0.338-0.54 0.368-0.857 0.11-2.524 0.331-4.068 0.582-1.998 0.325-2.789 0.539-3.128 0.67-0.29-0.408-0.702-0.741-1.182-0.949-0.729-0.316-1.949-1.004-1.927-2.058 0.020-0.953 0.409-1.516 0.731-1.821 0.138-0.13 0.21-0.309 0.198-0.491s-0.107-0.352-0.261-0.467c-0.298-0.221-0.723-0.182-0.968 0.088-0.817 0.899-1.012 2.143-1.056 2.805-0.044 0.667 0.167 1.284 0.628 1.834 0.331 0.395 0.782 0.746 1.341 1.045 0.542 0.29 0.934 0.752 1.103 1.302 0.015 0.048 0.022 0.099 0.021 0.149l-0.005 0.254c-0.003 0.124-0.013 0.248-0.032 0.372l-0.186 1.23c-0.073 0.483-0.407 0.889-0.874 1.111-0.325 0.155-0.51 0.485-0.462 0.82l0.34 2.348c0.018 0.122 0.129 0.212 0.262 0.212h1.397c0.056 0 0.113-0.014 0.159-0.044 0.094-0.062 0.132-0.169 0.103-0.266l-0.015-0.050c-0.11-0.366-0.41-0.647-0.792-0.755l-0.066-0.502c-0.018-0.141 0.068-0.276 0.21-0.328l1.335-0.492c-0 0.013-0.001 0.026-0.002 0.039-0 0.002-0 0.003-0 0.005-0.013 0.232-0.023 0.441-0.029 0.622-0.009 0.248 0.093 0.487 0.282 0.662l1.12 1.039c0.050 0.046 0.117 0.072 0.187 0.072h1.619c0.139 0 0.257-0.106 0.264-0.235 0.026-0.449-0.315-0.838-0.794-0.905l-0.463-0.065-0.191-0.279c-0.094-0.137-0.091-0.312 0.008-0.446l1.263-1.716c0.384-0.11 2.003-0.544 2.952-0.338 0.012 0.116 0.047 0.229 0.103 0.335l1.842 3.511c0.044 0.084 0.136 0.138 0.237 0.138h1.253c0.056 0 0.111-0.013 0.157-0.043 0.093-0.060 0.133-0.165 0.107-0.262l-0.085-0.316c-0.082-0.305-0.327-0.538-0.636-0.629l0.307-2.475c0.013-0.103 0.046-0.203 0.098-0.296 0.191-0.338 0.565-0.988 0.929-1.537 0.286-0.431 0.47-0.927 0.532-1.434 0.094-0.771 0.279-1.756 0.325-1.995 0.203-0.27 0.297-0.627 0.271-1.046-0.007-0.116-0.028-0.23-0.063-0.337 0.079-0.218 0.306-0.845 0.444-1.237 0.053-0.152 0.005-0.317-0.127-0.423zM10.678 20.456c-0.365 0.134-0.586 0.481-0.539 0.842l0.088 0.676c0.015 0.112 0.11 0.201 0.231 0.214 0.153 0.017 0.291 0.082 0.393 0.18h-0.743l-0.309-2.136c-0.019-0.131 0.053-0.259 0.18-0.32 0.586-0.28 1.003-0.792 1.136-1.386 0.475 0.52 0.814 1.011 0.979 1.408l-1.416 0.523zM22.284 17.044c-0.372 0.561-0.753 1.221-0.947 1.565-0.083 0.146-0.135 0.304-0.155 0.467l-0.145 1.168-0.319-1.464c-0.030-0.139 0.004-0.284 0.095-0.398l0.727-0.918c0.402-0.507 0.585-1.131 0.515-1.758-0.015-0.135-0.145-0.232-0.29-0.218s-0.25 0.134-0.235 0.269c0.056 0.505-0.091 1.008-0.415 1.417l-0.727 0.918c-0.178 0.225-0.246 0.511-0.187 0.785l0.649 2.982c0.025 0.114 0.133 0.196 0.259 0.196 0.197 0 0.367 0.124 0.415 0.3l0.003 0.011h-0.757l-1.769-3.374c-0.045-0.086-0.063-0.181-0.051-0.276l0.262-2.155c0.016-0.134-0.088-0.256-0.233-0.271s-0.276 0.081-0.292 0.216l-0.228 1.873c-0.862-0.151-2.046 0.083-2.719 0.249 0.055-0.328-0.035-0.671-0.265-0.948l-0.386-0.462c-0.089-0.107-0.255-0.127-0.37-0.044s-0.136 0.237-0.047 0.344l0.386 0.462c0.216 0.258 0.227 0.613 0.028 0.883l-1.315 1.786c-0.218 0.296-0.225 0.683-0.017 0.986l0.256 0.373c0.041 0.060 0.108 0.1 0.183 0.111l0.582 0.082c0.119 0.017 0.219 0.079 0.28 0.166h-1.181l-1.043-0.967c-0.085-0.079-0.132-0.188-0.128-0.3 0.006-0.177 0.016-0.382 0.029-0.61 0.059-0.784-0.767-1.8-1.265-2.336-0.088-0.095-0.135-0.215-0.132-0.339l0.030-1.409c0.001-0.024-0.043-0.18-0.043-0.18-0.207-0.673-0.686-1.238-1.348-1.592-1.49-0.796-1.75-1.758-1.705-2.425 0.093-1.401 0.624-2.18 0.933-2.519 0.059-0.065 0.162-0.074 0.235-0.021 0.051 0.038 0.062 0.087 0.063 0.113s-0.002 0.076-0.048 0.118c-0.39 0.368-0.859 1.040-0.883 2.154-0.028 1.33 1.386 2.144 2.231 2.511 0.453 0.196 0.832 0.528 1.068 0.934 0 0 0.012 0.021 0.015 0.025 0.039 0.060 0.104 0.102 0.178 0.115 0.075 0.013 0.153-0.005 0.213-0.049 0.275-0.204 2.325-0.662 7.201-1.286 0.349-0.045 0.655-0.223 0.849-0.489 0.049 0.073 0.105 0.141 0.169 0.202 0.267 0.256 0.651 0.391 1.111 0.391 0.017 0 0.692-0.001 0.692-0.001 0.002 0 0.003 0 0.005-0 0.248 0.005 0.475-0.028 0.675-0.098-0.075 0.422-0.173 1.004-0.233 1.501-0.053 0.436-0.211 0.862-0.457 1.232zM23.272 12.403c-0.022 0.054-0.022 0.115 0 0.17 0.035 0.087 0.056 0.181 0.062 0.28 0.022 0.359-0.065 0.644-0.252 0.824-0.172 0.165-0.439 0.249-0.772 0.241-0.003-0-0.005-0-0.008-0s-0.654-0.001-0.666 0c-0.329 0.006-0.593-0.078-0.764-0.242-0.187-0.179-0.274-0.464-0.252-0.824 0.006-0.099 0.027-0.193 0.062-0.28 0.022-0.055 0.022-0.115 0.001-0.169-0-0.001-0-0.001-0.001-0.002-0.025-0.069-0.242-0.665-0.402-1.117 0.516 0.209 0.857 0.581 0.861 0.585 0.074 0.083 0.198 0.111 0.305 0.069 0.338-0.132 0.725-0.132 1.063 0 0.107 0.042 0.23 0.014 0.305-0.069 0.004-0.004 0.346-0.377 0.861-0.585-0.161 0.452-0.378 1.049-0.402 1.118z"></path>
<path fill="#fffdfb" style="fill: var(--color2, #fffdfb)" d="M20.682 12.403l0.001 0.002c0.155-0.405 0.155-0.405 0.458-0.534-0.003-0.004-0.345-0.376-0.861-0.585 0.161 0.452 0.377 1.048 0.402 1.117z"></path>
<path fill="#fffdfb" style="fill: var(--color2, #fffdfb)" d="M23.675 11.286c-0.516 0.209-0.857 0.581-0.861 0.585 0.438 0.128 0.442 0.222 0.458 0.522l0.001 0.010c0.025-0.068 0.241-0.665 0.402-1.118z"></path>
<path fill="#fffdfb" style="fill: var(--color2, #fffdfb)" d="M9.202 9.689c-0.309 0.339-0.84 1.118-0.933 2.519l0.301-0.153c0.024-1.114 0.493-1.787 0.883-2.154 0.045-0.043 0.049-0.093 0.048-0.118s-0.012-0.075-0.063-0.113c-0.072-0.054-0.175-0.044-0.235 0.021z"></path>
</symbol>
</defs>
</svg>
